<?xml version="1.0" encoding="UTF-8"?>
<svg xmlns="http://www.w3.org/2000/svg" xmlns:xlink="http://www.w3.org/1999/xlink" width="1000px" height="1000px" viewBox="0 0 1000 1000" version="1.1">
<defs>
<clipPath id="clip1">
  <path d="M 108 405.886719 L 162 405.886719 L 162 458.667969 L 108 458.667969 Z M 108 405.886719 "/>
</clipPath>
<clipPath id="clip2">
  <path d="M 240 405.886719 L 293.332031 405.886719 L 293.332031 458.667969 L 240 458.667969 Z M 240 405.886719 "/>
</clipPath>
</defs>
<g id="surface1">
<path style=" stroke:none;fill-rule:nonzero;fill:rgb(31.764707%,73.333335%,74.901962%);fill-opacity:1;" d="M 159.25 491.550781 C 149.792969 472.5625 130.019531 471.082031 116.300781 479.769531 C 105.0625 486.863281 100.074219 500.605469 103.699219 513.355469 C 105.949219 521.324219 109.167969 528.855469 113.199219 535.90625 C 118.707031 545.519531 127.082031 553.21875 137.144531 557.949219 C 148.386719 563.269531 158.855469 565.957031 168.1875 565.957031 C 179.667969 565.957031 189.207031 561.832031 197.332031 555.261719 C 179.863281 538.46875 169.15625 511.46875 159.25 491.550781 Z M 159.25 491.550781 "/>
<g clip-path="url(#clip1)" clip-rule="nonzero">
<path style=" stroke:none;fill-rule:nonzero;fill:rgb(31.764707%,73.333335%,74.901962%);fill-opacity:1;" d="M 161.863281 432.207031 C 161.863281 433.9375 161.699219 435.65625 161.363281 437.34375 C 161.019531 439.042969 160.519531 440.6875 159.855469 442.292969 C 159.1875 443.886719 158.375 445.394531 157.417969 446.832031 C 156.449219 448.269531 155.355469 449.605469 154.125 450.824219 C 152.894531 452.050781 151.5625 453.144531 150.113281 454.105469 C 148.667969 455.0625 147.144531 455.875 145.542969 456.53125 C 143.9375 457.199219 142.28125 457.699219 140.582031 458.03125 C 138.875 458.363281 137.15625 458.542969 135.417969 458.542969 C 133.6875 458.542969 131.957031 458.363281 130.261719 458.03125 C 128.550781 457.699219 126.90625 457.199219 125.300781 456.53125 C 123.699219 455.875 122.167969 455.0625 120.730469 454.105469 C 119.28125 453.144531 117.949219 452.050781 116.71875 450.824219 C 115.488281 449.605469 114.394531 448.269531 113.425781 446.832031 C 112.457031 445.394531 111.644531 443.886719 110.980469 442.292969 C 110.324219 440.6875 109.8125 439.042969 109.480469 437.34375 C 109.136719 435.65625 108.96875 433.9375 108.96875 432.207031 C 108.96875 430.488281 109.136719 428.769531 109.480469 427.074219 C 109.8125 425.386719 110.324219 423.738281 110.980469 422.136719 C 111.644531 420.542969 112.457031 419.019531 113.425781 417.582031 C 114.394531 416.144531 115.488281 414.824219 116.71875 413.59375 C 117.949219 412.375 119.28125 411.28125 120.730469 410.324219 C 122.167969 409.363281 123.699219 408.550781 125.300781 407.894531 C 126.90625 407.230469 128.550781 406.730469 130.261719 406.394531 C 131.957031 406.050781 133.6875 405.886719 135.417969 405.886719 C 137.15625 405.886719 138.875 406.050781 140.582031 406.394531 C 142.28125 406.730469 143.9375 407.230469 145.542969 407.894531 C 147.144531 408.550781 148.667969 409.363281 150.113281 410.324219 C 151.5625 411.28125 152.894531 412.375 154.125 413.59375 C 155.355469 414.824219 156.449219 416.144531 157.417969 417.582031 C 158.375 419.019531 159.1875 420.542969 159.855469 422.136719 C 160.519531 423.738281 161.019531 425.386719 161.363281 427.074219 C 161.699219 428.769531 161.863281 430.488281 161.863281 432.207031 Z M 161.863281 432.207031 "/>
</g>
<path style=" stroke:none;fill-rule:nonzero;fill:rgb(0%,52.156866%,76.078433%);fill-opacity:1;" d="M 285.78125 479.769531 C 272.050781 471.082031 252.25 472.519531 242.824219 491.550781 C 223.78125 529.699219 201.925781 593.886719 135.050781 562.269531 C 152.769531 577.457031 175.84375 586.636719 201.042969 586.636719 C 247.292969 586.636719 286.300781 555.699219 298.34375 513.511719 C 301.925781 500.769531 297.011719 486.863281 285.78125 479.769531 Z M 285.78125 479.769531 "/>
<g clip-path="url(#clip2)" clip-rule="nonzero">
<path style=" stroke:none;fill-rule:nonzero;fill:rgb(0%,52.156866%,76.078433%);fill-opacity:1;" d="M 293.074219 432.207031 C 293.074219 433.9375 292.894531 435.65625 292.5625 437.34375 C 292.21875 439.042969 291.71875 440.6875 291.050781 442.292969 C 290.394531 443.886719 289.574219 445.394531 288.613281 446.832031 C 287.644531 448.269531 286.550781 449.605469 285.324219 450.824219 C 284.09375 452.050781 282.761719 453.144531 281.3125 454.105469 C 279.875 455.0625 278.34375 455.875 276.738281 456.53125 C 275.136719 457.199219 273.480469 457.699219 271.78125 458.03125 C 270.074219 458.363281 268.355469 458.542969 266.625 458.542969 C 264.886719 458.542969 263.167969 458.363281 261.457031 458.03125 C 259.761719 457.699219 258.105469 457.199219 256.5 456.53125 C 254.894531 455.875 253.375 455.0625 251.925781 454.105469 C 250.480469 453.144531 249.144531 452.050781 247.917969 450.824219 C 246.6875 449.605469 245.59375 448.269531 244.625 446.832031 C 243.667969 445.394531 242.855469 443.886719 242.1875 442.292969 C 241.519531 440.6875 241.019531 439.042969 240.675781 437.34375 C 240.34375 435.65625 240.167969 433.9375 240.167969 432.207031 C 240.167969 430.488281 240.34375 428.769531 240.675781 427.074219 C 241.019531 425.386719 241.519531 423.738281 242.1875 422.136719 C 242.855469 420.542969 243.667969 419.019531 244.625 417.582031 C 245.59375 416.144531 246.6875 414.824219 247.917969 413.59375 C 249.144531 412.375 250.480469 411.28125 251.925781 410.324219 C 253.375 409.363281 254.894531 408.550781 256.5 407.894531 C 258.105469 407.230469 259.761719 406.730469 261.457031 406.394531 C 263.167969 406.050781 264.886719 405.886719 266.625 405.886719 C 268.355469 405.886719 270.074219 406.050781 271.78125 406.394531 C 273.480469 406.730469 275.136719 407.230469 276.738281 407.894531 C 278.34375 408.550781 279.875 409.363281 281.3125 410.324219 C 282.761719 411.28125 284.09375 412.375 285.324219 413.59375 C 286.550781 414.824219 287.644531 416.144531 288.613281 417.582031 C 289.574219 419.019531 290.394531 420.542969 291.050781 422.136719 C 291.71875 423.738281 292.21875 425.386719 292.5625 427.074219 C 292.894531 428.769531 293.074219 430.488281 293.074219 432.207031 Z M 293.074219 432.207031 "/>
</g>
<path style="fill:none;stroke-width:2;stroke-linecap:butt;stroke-linejoin:miter;stroke:rgb(0%,52.156866%,76.078433%);stroke-opacity:1;stroke-miterlimit:4;" d="M -0.0000203451 0.998454 L 63.509745 0.998454 " transform="matrix(0,-2,2,0,693.960124,563.499959)"/>
<path style=" stroke:none;fill-rule:nonzero;fill:rgb(0%,52.156866%,76.078433%);fill-opacity:1;" d="M 375.328125 487.972656 C 375.960938 487.972656 376.460938 488.160156 376.828125 488.515625 C 377.210938 488.847656 377.410156 489.304688 377.410156 489.890625 L 377.410156 495.640625 C 377.410156 496.089844 377.253906 496.453125 376.953125 496.722656 C 376.671875 497.003906 376.296875 497.140625 375.828125 497.140625 L 339.242188 497.140625 C 338.210938 497.140625 337.703125 496.640625 337.703125 495.640625 L 337.703125 446.765625 C 337.703125 445.742188 338.210938 445.222656 339.242188 445.222656 L 375.117188 445.222656 C 375.617188 445.222656 376.003906 445.371094 376.285156 445.640625 C 376.554688 445.921875 376.703125 446.285156 376.703125 446.722656 L 376.703125 452.804688 C 376.703125 453.871094 376.171875 454.390625 375.117188 454.390625 L 347.410156 454.390625 L 347.410156 468.679688 L 369.117188 468.679688 C 369.671875 468.679688 370.097656 468.828125 370.410156 469.097656 C 370.742188 469.378906 370.910156 469.785156 370.910156 470.304688 L 370.910156 476.015625 C 370.910156 476.464844 370.742188 476.839844 370.410156 477.140625 C 370.097656 477.421875 369.671875 477.554688 369.117188 477.554688 L 347.410156 477.554688 L 347.410156 487.972656 Z M 375.328125 487.972656 "/>
<path style=" stroke:none;fill-rule:nonzero;fill:rgb(0%,52.156866%,76.078433%);fill-opacity:1;" d="M 391.046875 446.347656 L 391.046875 475.890625 C 391.046875 477.703125 391.339844 479.378906 391.921875 480.929688 C 392.527344 482.464844 393.378906 483.796875 394.464844 484.929688 C 395.566406 486.078125 396.859375 486.964844 398.339844 487.597656 C 399.839844 488.214844 401.472656 488.515625 403.253906 488.515625 C 405.027344 488.515625 406.652344 488.214844 408.128906 487.597656 C 409.628906 486.964844 410.933594 486.078125 412.046875 484.929688 C 413.152344 483.796875 414.003906 482.464844 414.589844 480.929688 C 415.191406 479.378906 415.503906 477.703125 415.503906 475.890625 L 415.503906 446.347656 C 415.503906 445.546875 415.921875 445.140625 416.753906 445.140625 L 423.878906 445.140625 C 424.714844 445.140625 425.128906 445.546875 425.128906 446.347656 L 425.128906 475.929688 C 425.128906 479.179688 424.597656 482.160156 423.546875 484.847656 C 422.484375 487.515625 420.984375 489.839844 419.046875 491.804688 C 417.097656 493.785156 414.777344 495.304688 412.089844 496.390625 C 409.421875 497.441406 406.472656 497.972656 403.253906 497.972656 C 400.027344 497.972656 397.066406 497.429688 394.378906 496.347656 C 391.714844 495.265625 389.402344 493.742188 387.464844 491.765625 C 385.515625 489.796875 384.015625 487.464844 382.964844 484.765625 C 381.902344 482.046875 381.378906 479.046875 381.378906 475.765625 L 381.378906 446.347656 C 381.378906 445.546875 381.753906 445.140625 382.503906 445.140625 L 389.921875 445.140625 C 390.671875 445.140625 391.046875 445.546875 391.046875 446.347656 Z M 391.046875 446.347656 "/>
<path style=" stroke:none;fill-rule:nonzero;fill:rgb(0%,52.156866%,76.078433%);fill-opacity:1;" d="M 464.472656 481.804688 L 471.429688 495.390625 C 471.679688 495.890625 471.703125 496.328125 471.515625 496.679688 C 471.347656 497.015625 470.992188 497.179688 470.472656 497.179688 L 462.929688 497.179688 C 462.617188 497.179688 462.304688 497.078125 461.972656 496.847656 C 461.640625 496.597656 461.367188 496.285156 461.179688 495.890625 L 455.847656 484.890625 C 455.265625 485.003906 454.660156 485.078125 454.054688 485.097656 C 453.472656 485.128906 452.867188 485.140625 452.265625 485.140625 L 441.554688 485.140625 L 441.554688 495.679688 C 441.554688 496.128906 441.398438 496.492188 441.097656 496.765625 C 440.785156 497.046875 440.410156 497.179688 439.972656 497.179688 L 433.390625 497.179688 C 432.972656 497.179688 432.609375 497.046875 432.304688 496.765625 C 431.992188 496.492188 431.847656 496.128906 431.847656 495.679688 L 431.847656 446.679688 C 431.847656 446.265625 431.992188 445.921875 432.304688 445.640625 C 432.609375 445.371094 432.972656 445.222656 433.390625 445.222656 L 435.097656 445.222656 C 436.117188 445.222656 437.109375 445.222656 438.054688 445.222656 C 439.023438 445.222656 439.722656 445.222656 440.140625 445.222656 L 452.265625 445.222656 C 455.316406 445.222656 458.117188 445.722656 460.679688 446.722656 C 463.234375 447.703125 465.441406 449.089844 467.304688 450.890625 C 469.191406 452.703125 470.648438 454.839844 471.679688 457.304688 C 472.734375 459.753906 473.265625 462.429688 473.265625 465.347656 C 473.265625 468.878906 472.472656 472.078125 470.890625 474.929688 C 469.328125 477.765625 467.191406 480.054688 464.472656 481.804688 Z M 451.640625 477.054688 C 453.972656 477.054688 456.035156 476.554688 457.847656 475.554688 C 459.648438 474.554688 461.066406 473.171875 462.097656 471.390625 C 463.117188 469.621094 463.640625 467.578125 463.640625 465.265625 C 463.640625 463.597656 463.328125 462.054688 462.722656 460.640625 C 462.109375 459.222656 461.265625 458.003906 460.179688 456.972656 C 459.117188 455.921875 457.859375 455.121094 456.390625 454.554688 C 454.941406 453.972656 453.359375 453.679688 451.640625 453.679688 L 441.554688 453.679688 L 441.554688 477.054688 Z M 451.640625 477.054688 "/>
<path style=" stroke:none;fill-rule:nonzero;fill:rgb(0%,52.156866%,76.078433%);fill-opacity:1;" d="M 475.855469 471.265625 C 475.855469 468.265625 476.292969 465.421875 477.1875 462.722656 C 478.074219 460.003906 479.335938 457.535156 480.980469 455.304688 C 482.617188 453.089844 484.542969 451.171875 486.773438 449.554688 C 489.023438 447.921875 491.492188 446.660156 494.1875 445.765625 C 496.90625 444.878906 499.773438 444.429688 502.773438 444.429688 C 505.792969 444.429688 508.65625 444.878906 511.355469 445.765625 C 514.074219 446.660156 516.542969 447.921875 518.773438 449.554688 C 521.023438 451.171875 522.960938 453.089844 524.605469 455.304688 C 526.242188 457.535156 527.5 460.003906 528.398438 462.722656 C 529.28125 465.421875 529.730469 468.265625 529.730469 471.265625 C 529.730469 474.265625 529.28125 477.121094 528.398438 479.804688 C 527.5 482.503906 526.242188 484.964844 524.605469 487.179688 C 522.960938 489.378906 521.023438 491.296875 518.773438 492.929688 C 516.542969 494.546875 514.074219 495.796875 511.355469 496.679688 C 508.65625 497.535156 505.792969 497.972656 502.773438 497.972656 C 499.773438 497.972656 496.90625 497.535156 494.1875 496.679688 C 491.492188 495.796875 489.023438 494.546875 486.773438 492.929688 C 484.542969 491.296875 482.617188 489.378906 480.980469 487.179688 C 479.335938 484.964844 478.074219 482.503906 477.1875 479.804688 C 476.292969 477.121094 475.855469 474.265625 475.855469 471.265625 Z M 485.480469 471.265625 C 485.480469 473.679688 485.90625 475.921875 486.773438 477.972656 C 487.65625 480.035156 488.898438 481.839844 490.480469 483.390625 C 492.0625 484.953125 493.898438 486.160156 495.980469 487.015625 C 498.085938 487.878906 500.355469 488.304688 502.773438 488.304688 C 505.210938 488.304688 507.480469 487.878906 509.5625 487.015625 C 511.648438 486.160156 513.480469 484.953125 515.0625 483.390625 C 516.648438 481.839844 517.867188 480.035156 518.730469 477.972656 C 519.617188 475.921875 520.0625 473.679688 520.0625 471.265625 C 520.0625 468.828125 519.617188 466.554688 518.730469 464.472656 C 517.835938 462.390625 516.605469 460.578125 515.023438 459.015625 C 513.460938 457.464844 511.625 456.253906 509.523438 455.390625 C 507.4375 454.503906 505.1875 454.054688 502.773438 454.054688 C 500.355469 454.054688 498.085938 454.503906 495.980469 455.390625 C 493.898438 456.253906 492.0625 457.464844 490.480469 459.015625 C 488.917969 460.578125 487.699219 462.390625 486.8125 464.472656 C 485.917969 466.554688 485.480469 468.828125 485.480469 471.265625 Z M 485.480469 471.265625 "/>
<path style=" stroke:none;fill-rule:nonzero;fill:rgb(0%,52.156866%,76.078433%);fill-opacity:1;" d="M 333.160156 518.679688 L 333.160156 514.347656 C 333.160156 513.515625 333.554688 513.097656 334.367188 513.097656 L 363.203125 513.097656 C 363.554688 513.097656 363.835938 513.214844 364.035156 513.429688 C 364.253906 513.660156 364.367188 513.964844 364.367188 514.347656 L 364.367188 518.679688 C 364.367188 519.515625 363.972656 519.929688 363.203125 519.929688 L 352.660156 519.929688 L 352.660156 553.929688 C 352.660156 554.765625 352.242188 555.179688 351.410156 555.179688 L 346.078125 555.179688 C 345.242188 555.179688 344.828125 554.765625 344.828125 553.929688 L 344.828125 519.929688 L 334.367188 519.929688 C 334.003906 519.929688 333.710938 519.839844 333.492188 519.640625 C 333.265625 519.421875 333.160156 519.097656 333.160156 518.679688 Z M 333.160156 518.679688 "/>
<path style=" stroke:none;fill-rule:nonzero;fill:rgb(0%,52.156866%,76.078433%);fill-opacity:1;" d="M 402.859375 553.765625 C 403.027344 554.179688 403.027344 554.535156 402.859375 554.804688 C 402.714844 555.054688 402.410156 555.179688 401.941406 555.179688 L 395.984375 555.179688 C 395.671875 555.179688 395.402344 555.089844 395.152344 554.890625 C 394.902344 554.671875 394.703125 554.410156 394.566406 554.097656 L 392.902344 550.015625 L 373.566406 550.015625 L 371.902344 554.097656 C 371.753906 554.378906 371.566406 554.628906 371.316406 554.847656 C 371.089844 555.078125 370.796875 555.179688 370.441406 555.179688 L 364.527344 555.179688 C 364.078125 555.179688 363.753906 555.054688 363.566406 554.804688 C 363.402344 554.535156 363.410156 554.179688 363.609375 553.765625 L 381.484375 513.640625 C 381.621094 513.304688 381.828125 513.046875 382.109375 512.847656 C 382.410156 512.660156 382.714844 512.554688 383.027344 512.554688 L 383.359375 512.554688 C 383.691406 512.554688 383.996094 512.671875 384.277344 512.890625 C 384.546875 513.089844 384.753906 513.347656 384.902344 513.679688 Z M 376.316406 543.304688 L 390.109375 543.304688 L 383.234375 526.597656 Z M 376.316406 543.304688 "/>
<path style=" stroke:none;fill-rule:nonzero;fill:rgb(0%,52.156866%,76.078433%);fill-opacity:1;" d="M 432.261719 548.265625 C 432.867188 548.265625 433.179688 548.589844 433.179688 549.222656 L 433.179688 554.179688 C 433.179688 554.828125 432.867188 555.140625 432.261719 555.140625 L 406.386719 555.140625 C 405.742188 555.140625 405.429688 554.828125 405.429688 554.179688 L 405.429688 514.015625 C 405.429688 513.378906 405.742188 513.054688 406.386719 513.054688 L 412.347656 513.054688 C 412.949219 513.054688 413.261719 513.378906 413.261719 514.015625 L 413.261719 548.265625 Z M 432.261719 548.265625 "/>
<path style=" stroke:none;fill-rule:nonzero;fill:rgb(0%,52.156866%,76.078433%);fill-opacity:1;" d="M 465.839844 547.722656 C 466.339844 547.722656 466.734375 547.871094 467.046875 548.140625 C 467.351562 548.421875 467.507812 548.796875 467.507812 549.265625 L 467.507812 553.929688 C 467.507812 554.296875 467.390625 554.589844 467.171875 554.804688 C 466.945312 555.035156 466.640625 555.140625 466.257812 555.140625 L 436.632812 555.140625 C 435.796875 555.140625 435.382812 554.742188 435.382812 553.929688 L 435.382812 514.347656 C 435.382812 513.515625 435.796875 513.097656 436.632812 513.097656 L 465.671875 513.097656 C 466.058594 513.097656 466.359375 513.214844 466.589844 513.429688 C 466.808594 513.660156 466.921875 513.964844 466.921875 514.347656 L 466.921875 519.265625 C 466.921875 520.097656 466.507812 520.515625 465.671875 520.515625 L 443.214844 520.515625 L 443.214844 532.097656 L 460.796875 532.097656 C 461.234375 532.097656 461.589844 532.214844 461.839844 532.429688 C 462.109375 532.660156 462.257812 532.992188 462.257812 533.429688 L 462.257812 538.054688 C 462.257812 538.421875 462.109375 538.714844 461.839844 538.929688 C 461.589844 539.160156 461.234375 539.265625 460.796875 539.265625 L 443.214844 539.265625 L 443.214844 547.722656 Z M 465.839844 547.722656 "/>
<path style=" stroke:none;fill-rule:nonzero;fill:rgb(0%,52.156866%,76.078433%);fill-opacity:1;" d="M 507.976562 513.054688 C 508.609375 513.054688 508.933594 513.371094 508.933594 513.972656 L 508.933594 554.390625 C 508.933594 554.804688 508.820312 555.128906 508.601562 555.347656 C 508.371094 555.566406 508.121094 555.679688 507.851562 555.679688 L 507.765625 555.679688 C 507.433594 555.679688 507.140625 555.578125 506.890625 555.390625 C 506.664062 555.191406 506.390625 554.964844 506.058594 554.679688 L 479.308594 529.304688 L 479.308594 554.265625 C 479.308594 554.878906 478.996094 555.179688 478.390625 555.179688 L 472.433594 555.179688 C 471.789062 555.179688 471.476562 554.878906 471.476562 554.265625 L 471.476562 513.765625 C 471.476562 513.429688 471.570312 513.160156 471.765625 512.929688 C 471.953125 512.679688 472.203125 512.554688 472.515625 512.554688 L 472.601562 512.554688 C 472.902344 512.554688 473.164062 512.671875 473.390625 512.890625 C 473.609375 513.089844 473.871094 513.304688 474.183594 513.554688 L 501.101562 539.054688 L 501.101562 513.972656 C 501.101562 513.371094 501.402344 513.054688 502.015625 513.054688 Z M 507.976562 513.054688 "/>
<path style=" stroke:none;fill-rule:nonzero;fill:rgb(0%,52.156866%,76.078433%);fill-opacity:1;" d="M 511.691406 518.679688 L 511.691406 514.347656 C 511.691406 513.515625 512.085938 513.097656 512.898438 513.097656 L 541.734375 513.097656 C 542.085938 513.097656 542.367188 513.214844 542.566406 513.429688 C 542.785156 513.660156 542.898438 513.964844 542.898438 514.347656 L 542.898438 518.679688 C 542.898438 519.515625 542.503906 519.929688 541.734375 519.929688 L 531.191406 519.929688 L 531.191406 553.929688 C 531.191406 554.765625 530.773438 555.179688 529.941406 555.179688 L 524.609375 555.179688 C 523.773438 555.179688 523.359375 554.765625 523.359375 553.929688 L 523.359375 519.929688 L 512.898438 519.929688 C 512.535156 519.929688 512.242188 519.839844 512.023438 519.640625 C 511.796875 519.421875 511.691406 519.097656 511.691406 518.679688 Z M 511.691406 518.679688 "/>
<path style=" stroke:none;fill-rule:nonzero;fill:rgb(0%,52.156866%,76.078433%);fill-opacity:1;" d="M 595.269531 513.054688 C 595.875 513.054688 596.1875 513.378906 596.1875 514.015625 L 596.1875 554.265625 C 596.1875 554.878906 595.875 555.179688 595.269531 555.179688 L 589.269531 555.179688 C 588.6875 555.179688 588.394531 554.878906 588.394531 554.265625 L 588.394531 541.765625 L 567.476562 541.765625 L 567.476562 554.265625 C 567.476562 554.878906 567.164062 555.179688 566.5625 555.179688 L 560.601562 555.179688 C 559.957031 555.179688 559.644531 554.878906 559.644531 554.265625 L 559.644531 514.015625 C 559.644531 513.378906 559.957031 513.054688 560.601562 513.054688 L 566.5625 513.054688 C 567.164062 513.054688 567.476562 513.378906 567.476562 514.015625 L 567.476562 534.929688 L 588.394531 534.929688 L 588.394531 514.015625 C 588.394531 513.378906 588.6875 513.054688 589.269531 513.054688 Z M 595.269531 513.054688 "/>
<path style=" stroke:none;fill-rule:nonzero;fill:rgb(0%,52.156866%,76.078433%);fill-opacity:1;" d="M 609.433594 514.015625 L 609.433594 537.929688 C 609.433594 539.410156 609.664062 540.765625 610.140625 542.015625 C 610.640625 543.265625 611.316406 544.347656 612.183594 545.265625 C 613.066406 546.179688 614.109375 546.910156 615.308594 547.429688 C 616.527344 547.929688 617.859375 548.179688 619.308594 548.179688 C 620.746094 548.179688 622.066406 547.929688 623.265625 547.429688 C 624.453125 546.910156 625.496094 546.179688 626.390625 545.265625 C 627.308594 544.347656 627.996094 543.265625 628.476562 542.015625 C 628.976562 540.765625 629.226562 539.410156 629.226562 537.929688 L 629.226562 514.015625 C 629.226562 513.378906 629.558594 513.054688 630.226562 513.054688 L 636.015625 513.054688 C 636.683594 513.054688 637.015625 513.378906 637.015625 514.015625 L 637.015625 537.972656 C 637.015625 540.621094 636.578125 543.015625 635.726562 545.179688 C 634.890625 547.347656 633.683594 549.242188 632.101562 550.847656 C 630.515625 552.429688 628.640625 553.660156 626.476562 554.515625 C 624.308594 555.367188 621.914062 555.804688 619.308594 555.804688 C 616.691406 555.804688 614.308594 555.367188 612.140625 554.515625 C 609.976562 553.628906 608.101562 552.390625 606.515625 550.804688 C 604.933594 549.203125 603.703125 547.296875 602.851562 545.097656 C 602.015625 542.910156 601.601562 540.492188 601.601562 537.847656 L 601.601562 514.015625 C 601.601562 513.378906 601.902344 513.054688 602.515625 513.054688 L 608.515625 513.054688 C 609.121094 513.054688 609.433594 513.378906 609.433594 514.015625 Z M 609.433594 514.015625 "/>
<path style=" stroke:none;fill-rule:nonzero;fill:rgb(0%,52.156866%,76.078433%);fill-opacity:1;" d="M 667.414062 531.640625 C 668.933594 532.054688 670.296875 532.765625 671.496094 533.765625 C 672.714844 534.765625 673.671875 535.992188 674.371094 537.429688 C 675.089844 538.847656 675.453125 540.410156 675.453125 542.097656 C 675.453125 543.929688 675.078125 545.640625 674.328125 547.222656 C 673.601562 548.804688 672.578125 550.203125 671.246094 551.390625 C 669.914062 552.554688 668.351562 553.472656 666.578125 554.140625 C 664.828125 554.804688 662.921875 555.140625 660.871094 555.140625 L 643.414062 555.140625 C 642.765625 555.140625 642.453125 554.828125 642.453125 554.179688 L 642.453125 514.015625 C 642.453125 513.410156 642.765625 513.097656 643.414062 513.097656 L 659.664062 513.097656 C 661.464844 513.097656 663.132812 513.378906 664.664062 513.929688 C 666.214844 514.464844 667.578125 515.214844 668.746094 516.179688 C 669.933594 517.160156 670.851562 518.296875 671.496094 519.597656 C 672.164062 520.878906 672.496094 522.265625 672.496094 523.765625 C 672.496094 524.910156 672.265625 525.992188 671.828125 527.015625 C 671.382812 528.046875 670.765625 528.964844 669.996094 529.765625 C 669.246094 530.578125 668.382812 531.203125 667.414062 531.640625 Z M 665.078125 524.890625 C 665.078125 524.003906 664.828125 523.214844 664.328125 522.515625 C 663.851562 521.796875 663.214844 521.222656 662.414062 520.804688 C 661.601562 520.371094 660.683594 520.140625 659.664062 520.140625 L 650.246094 520.140625 L 650.246094 529.347656 L 659.664062 529.347656 C 660.683594 529.347656 661.601562 529.171875 662.414062 528.804688 C 663.214844 528.453125 663.851562 527.929688 664.328125 527.265625 C 664.828125 526.597656 665.078125 525.804688 665.078125 524.890625 Z M 660.703125 548.097656 C 662.007812 548.097656 663.183594 547.804688 664.246094 547.222656 C 665.296875 546.640625 666.132812 545.871094 666.746094 544.890625 C 667.351562 543.921875 667.664062 542.828125 667.664062 541.597656 C 667.664062 540.328125 667.351562 539.253906 666.746094 538.390625 C 666.132812 537.535156 665.296875 536.878906 664.246094 536.429688 C 663.183594 535.964844 662.007812 535.722656 660.703125 535.722656 L 650.246094 535.722656 L 650.246094 548.097656 Z M 660.703125 548.097656 "/>
<path style=" stroke:none;fill-rule:nonzero;fill:rgb(21.568628%,21.176471%,26.274511%);fill-opacity:1;" d="M 725.238281 460.898438 C 725.40625 460.816406 725.550781 460.773438 725.699219 460.773438 C 725.832031 460.773438 725.949219 460.835938 726.03125 460.941406 L 727.324219 462.898438 C 727.375 462.984375 727.375 463.097656 727.324219 463.234375 C 727.292969 463.378906 727.207031 463.484375 727.074219 463.566406 C 726.625 463.929688 726.113281 464.253906 725.53125 464.523438 C 724.949219 464.773438 724.332031 464.972656 723.699219 465.109375 C 723.050781 465.273438 722.449219 465.359375 721.863281 465.359375 C 720.863281 465.359375 719.90625 465.210938 718.988281 464.941406 C 718.074219 464.640625 717.238281 464.222656 716.488281 463.691406 C 715.738281 463.140625 715.082031 462.503906 714.53125 461.773438 C 713.96875 461.023438 713.542969 460.210938 713.238281 459.316406 C 712.957031 458.398438 712.824219 457.441406 712.824219 456.441406 C 712.824219 455.441406 712.957031 454.503906 713.238281 453.609375 C 713.542969 452.722656 713.96875 451.898438 714.53125 451.148438 C 715.082031 450.398438 715.738281 449.765625 716.488281 449.234375 C 717.238281 448.679688 718.074219 448.265625 718.988281 447.984375 C 719.90625 447.679688 720.863281 447.523438 721.863281 447.523438 C 722.449219 447.523438 723.042969 447.597656 723.65625 447.734375 C 724.292969 447.878906 724.917969 448.085938 725.53125 448.359375 C 726.136719 448.640625 726.675781 448.972656 727.15625 449.359375 C 727.292969 449.441406 727.363281 449.554688 727.363281 449.691406 C 727.386719 449.804688 727.375 449.898438 727.324219 449.984375 L 726.03125 451.941406 C 725.96875 452.054688 725.875 452.128906 725.738281 452.148438 C 725.59375 452.148438 725.449219 452.097656 725.28125 451.984375 C 724.800781 451.566406 724.261719 451.265625 723.65625 451.066406 C 723.042969 450.847656 722.449219 450.734375 721.863281 450.734375 C 721.050781 450.734375 720.292969 450.890625 719.574219 451.191406 C 718.875 451.472656 718.25 451.878906 717.699219 452.398438 C 717.167969 452.898438 716.75 453.503906 716.449219 454.191406 C 716.167969 454.890625 716.03125 455.640625 716.03125 456.441406 C 716.03125 457.253906 716.167969 458.003906 716.449219 458.691406 C 716.75 459.359375 717.167969 459.960938 717.699219 460.484375 C 718.25 461.015625 718.875 461.429688 719.574219 461.734375 C 720.292969 462.015625 721.050781 462.148438 721.863281 462.148438 C 722.417969 462.148438 723 462.046875 723.613281 461.816406 C 724.21875 461.597656 724.761719 461.296875 725.238281 460.898438 Z M 725.238281 460.898438 "/>
<path style=" stroke:none;fill-rule:nonzero;fill:rgb(21.568628%,21.176471%,26.274511%);fill-opacity:1;" d="M 748.449219 464.523438 C 748.5 464.691406 748.488281 464.835938 748.40625 464.941406 C 748.34375 465.054688 748.238281 465.109375 748.074219 465.109375 L 745.613281 465.109375 C 745.46875 465.109375 745.34375 465.066406 745.238281 464.984375 C 745.15625 464.878906 745.082031 464.765625 745.03125 464.648438 L 744.324219 462.984375 L 736.40625 462.984375 L 735.699219 464.648438 C 735.636719 464.765625 735.550781 464.859375 735.449219 464.941406 C 735.363281 465.023438 735.25 465.066406 735.113281 465.066406 L 732.65625 465.066406 C 732.488281 465.066406 732.363281 465.023438 732.28125 464.941406 C 732.199219 464.835938 732.199219 464.679688 732.28125 464.484375 L 739.65625 448.023438 C 739.707031 447.890625 739.792969 447.773438 739.90625 447.691406 C 740.011719 447.609375 740.136719 447.566406 740.28125 447.566406 L 740.40625 447.566406 C 740.542969 447.566406 740.667969 447.609375 740.78125 447.691406 C 740.886719 447.773438 740.96875 447.890625 741.03125 448.023438 Z M 737.53125 460.191406 L 743.199219 460.191406 L 740.363281 453.316406 Z M 737.53125 460.191406 "/>
<path style=" stroke:none;fill-rule:nonzero;fill:rgb(21.568628%,21.176471%,26.274511%);fill-opacity:1;" d="M 765.101562 459.941406 L 767.394531 464.484375 C 767.476562 464.648438 767.488281 464.796875 767.433594 464.898438 C 767.371094 465.015625 767.269531 465.066406 767.101562 465.066406 L 764.601562 465.066406 C 764.488281 465.066406 764.371094 465.046875 764.269531 464.984375 C 764.152344 464.898438 764.070312 464.796875 764.019531 464.648438 L 762.226562 460.984375 C 762.027344 461.015625 761.832031 461.046875 761.644531 461.066406 C 761.445312 461.066406 761.238281 461.066406 761.019531 461.066406 L 757.476562 461.066406 L 757.476562 464.566406 C 757.476562 464.734375 757.414062 464.859375 757.308594 464.941406 C 757.226562 465.023438 757.101562 465.066406 756.933594 465.066406 L 754.769531 465.066406 C 754.621094 465.066406 754.496094 465.023438 754.394531 464.941406 C 754.277344 464.859375 754.226562 464.734375 754.226562 464.566406 L 754.226562 448.273438 C 754.226562 448.140625 754.277344 448.023438 754.394531 447.941406 C 754.496094 447.835938 754.621094 447.773438 754.769531 447.773438 L 755.308594 447.773438 C 755.644531 447.773438 755.976562 447.773438 756.308594 447.773438 C 756.644531 447.773438 756.863281 447.773438 756.976562 447.773438 L 761.019531 447.773438 C 762.039062 447.773438 762.976562 447.941406 763.808594 448.273438 C 764.664062 448.609375 765.402344 449.085938 766.019531 449.691406 C 766.652344 450.273438 767.144531 450.984375 767.476562 451.816406 C 767.832031 452.628906 768.019531 453.515625 768.019531 454.484375 C 768.019531 455.648438 767.746094 456.710938 767.226562 457.648438 C 766.695312 458.597656 765.988281 459.359375 765.101562 459.941406 Z M 760.808594 458.398438 C 761.582031 458.398438 762.269531 458.234375 762.851562 457.898438 C 763.457031 457.566406 763.933594 457.109375 764.269531 456.523438 C 764.621094 455.921875 764.808594 455.234375 764.808594 454.484375 C 764.808594 453.898438 764.707031 453.390625 764.519531 452.941406 C 764.320312 452.472656 764.039062 452.054688 763.683594 451.691406 C 763.320312 451.335938 762.894531 451.066406 762.394531 450.898438 C 761.914062 450.710938 761.394531 450.609375 760.808594 450.609375 L 757.476562 450.609375 L 757.476562 458.398438 Z M 760.808594 458.398438 "/>
<path style=" stroke:none;fill-rule:nonzero;fill:rgb(21.568628%,21.176471%,26.274511%);fill-opacity:1;" d="M 787.1875 462.023438 C 787.375 462.023438 787.53125 462.085938 787.644531 462.191406 C 787.78125 462.304688 787.851562 462.460938 787.851562 462.648438 L 787.851562 464.566406 C 787.851562 464.710938 787.789062 464.835938 787.6875 464.941406 C 787.601562 465.023438 787.488281 465.066406 787.351562 465.066406 L 775.1875 465.066406 C 774.820312 465.066406 774.644531 464.898438 774.644531 464.566406 L 774.644531 448.316406 C 774.644531 447.960938 774.820312 447.773438 775.1875 447.773438 L 787.101562 447.773438 C 787.269531 447.773438 787.394531 447.835938 787.476562 447.941406 C 787.582031 448.023438 787.644531 448.140625 787.644531 448.273438 L 787.644531 450.316406 C 787.644531 450.679688 787.457031 450.859375 787.101562 450.859375 L 777.894531 450.859375 L 777.894531 455.609375 L 785.101562 455.609375 C 785.289062 455.609375 785.4375 455.648438 785.519531 455.734375 C 785.625 455.816406 785.6875 455.960938 785.6875 456.148438 L 785.6875 458.023438 C 785.6875 458.191406 785.625 458.335938 785.519531 458.441406 C 785.4375 458.523438 785.289062 458.566406 785.101562 458.566406 L 777.894531 458.566406 L 777.894531 462.023438 Z M 787.1875 462.023438 "/>
<path style=" stroke:none;fill-rule:nonzero;fill:rgb(21.568628%,21.176471%,26.274511%);fill-opacity:1;" d="M 806.773438 462.023438 C 806.960938 462.023438 807.117188 462.085938 807.230469 462.191406 C 807.367188 462.304688 807.441406 462.460938 807.441406 462.648438 L 807.441406 464.566406 C 807.441406 464.710938 807.378906 464.835938 807.273438 464.941406 C 807.191406 465.023438 807.074219 465.066406 806.941406 465.066406 L 794.773438 465.066406 C 794.410156 465.066406 794.230469 464.898438 794.230469 464.566406 L 794.230469 448.316406 C 794.230469 447.960938 794.410156 447.773438 794.773438 447.773438 L 806.691406 447.773438 C 806.855469 447.773438 806.980469 447.835938 807.066406 447.941406 C 807.167969 448.023438 807.230469 448.140625 807.230469 448.273438 L 807.230469 450.316406 C 807.230469 450.679688 807.042969 450.859375 806.691406 450.859375 L 797.480469 450.859375 L 797.480469 455.609375 L 804.691406 455.609375 C 804.878906 455.609375 805.023438 455.648438 805.105469 455.734375 C 805.210938 455.816406 805.273438 455.960938 805.273438 456.148438 L 805.273438 458.023438 C 805.273438 458.191406 805.210938 458.335938 805.105469 458.441406 C 805.023438 458.523438 804.878906 458.566406 804.691406 458.566406 L 797.480469 458.566406 L 797.480469 462.023438 Z M 806.773438 462.023438 "/>
<path style=" stroke:none;fill-rule:nonzero;fill:rgb(21.568628%,21.176471%,26.274511%);fill-opacity:1;" d="M 824.695312 459.941406 L 826.984375 464.484375 C 827.070312 464.648438 827.078125 464.796875 827.027344 464.898438 C 826.964844 465.015625 826.859375 465.066406 826.695312 465.066406 L 824.195312 465.066406 C 824.078125 465.066406 823.964844 465.046875 823.859375 464.984375 C 823.746094 464.898438 823.664062 464.796875 823.609375 464.648438 L 821.820312 460.984375 C 821.621094 461.015625 821.421875 461.046875 821.234375 461.066406 C 821.039062 461.066406 820.828125 461.066406 820.609375 461.066406 L 817.070312 461.066406 L 817.070312 464.566406 C 817.070312 464.734375 817.007812 464.859375 816.902344 464.941406 C 816.820312 465.023438 816.695312 465.066406 816.527344 465.066406 L 814.359375 465.066406 C 814.214844 465.066406 814.089844 465.023438 813.984375 464.941406 C 813.871094 464.859375 813.820312 464.734375 813.820312 464.566406 L 813.820312 448.273438 C 813.820312 448.140625 813.871094 448.023438 813.984375 447.941406 C 814.089844 447.835938 814.214844 447.773438 814.359375 447.773438 L 814.902344 447.773438 C 815.234375 447.773438 815.570312 447.773438 815.902344 447.773438 C 816.234375 447.773438 816.453125 447.773438 816.570312 447.773438 L 820.609375 447.773438 C 821.632812 447.773438 822.570312 447.941406 823.402344 448.273438 C 824.257812 448.609375 824.996094 449.085938 825.609375 449.691406 C 826.246094 450.273438 826.734375 450.984375 827.070312 451.816406 C 827.421875 452.628906 827.609375 453.515625 827.609375 454.484375 C 827.609375 455.648438 827.339844 456.710938 826.820312 457.648438 C 826.289062 458.597656 825.578125 459.359375 824.695312 459.941406 Z M 820.402344 458.398438 C 821.171875 458.398438 821.859375 458.234375 822.445312 457.898438 C 823.046875 457.566406 823.527344 457.109375 823.859375 456.523438 C 824.214844 455.921875 824.402344 455.234375 824.402344 454.484375 C 824.402344 453.898438 824.296875 453.390625 824.109375 452.941406 C 823.914062 452.472656 823.632812 452.054688 823.277344 451.691406 C 822.914062 451.335938 822.484375 451.066406 821.984375 450.898438 C 821.507812 450.710938 820.984375 450.609375 820.402344 450.609375 L 817.070312 450.609375 L 817.070312 458.398438 Z M 820.402344 458.398438 "/>
<path style=" stroke:none;fill-rule:nonzero;fill:rgb(21.568628%,21.176471%,26.274511%);fill-opacity:1;" d="M 839.988281 465.359375 C 839.339844 465.359375 838.695312 465.273438 838.027344 465.109375 C 837.382812 464.972656 836.777344 464.773438 836.195312 464.523438 C 835.632812 464.273438 835.113281 463.984375 834.613281 463.648438 C 834.132812 463.296875 833.746094 462.890625 833.445312 462.441406 C 833.363281 462.335938 833.320312 462.222656 833.320312 462.109375 C 833.339844 461.972656 833.425781 461.835938 833.570312 461.691406 L 835.027344 460.234375 C 835.132812 460.128906 835.257812 460.085938 835.402344 460.109375 C 835.539062 460.140625 835.675781 460.210938 835.820312 460.316406 C 836.152344 460.710938 836.539062 461.054688 836.988281 461.359375 C 837.425781 461.640625 837.902344 461.859375 838.402344 462.023438 C 838.902344 462.191406 839.382812 462.273438 839.863281 462.273438 C 840.832031 462.273438 841.570312 462.097656 842.070312 461.734375 C 842.589844 461.347656 842.863281 460.816406 842.863281 460.148438 C 842.863281 459.734375 842.714844 459.390625 842.445312 459.109375 C 842.164062 458.804688 841.746094 458.523438 841.195312 458.273438 C 840.664062 458.023438 840.007812 457.773438 839.238281 457.523438 C 838.402344 457.253906 837.664062 456.960938 837.027344 456.648438 C 836.414062 456.347656 835.871094 456.003906 835.402344 455.609375 C 834.957031 455.222656 834.621094 454.765625 834.402344 454.234375 C 834.175781 453.710938 834.070312 453.097656 834.070312 452.398438 C 834.070312 451.429688 834.300781 450.585938 834.777344 449.859375 C 835.246094 449.109375 835.925781 448.546875 836.820312 448.148438 C 837.707031 447.734375 838.746094 447.523438 839.945312 447.523438 C 840.613281 447.523438 841.246094 447.609375 841.863281 447.773438 C 842.496094 447.941406 843.070312 448.179688 843.570312 448.484375 C 844.089844 448.765625 844.527344 449.097656 844.863281 449.484375 C 844.996094 449.628906 845.070312 449.773438 845.070312 449.941406 C 845.070312 450.085938 845.007812 450.210938 844.902344 450.316406 L 843.695312 451.691406 C 843.550781 451.890625 843.402344 451.972656 843.238281 451.941406 C 843.070312 451.921875 842.902344 451.847656 842.738281 451.734375 C 842.339844 451.378906 841.882812 451.097656 841.363281 450.898438 C 840.832031 450.710938 840.320312 450.609375 839.820312 450.609375 C 838.988281 450.609375 838.332031 450.773438 837.863281 451.109375 C 837.414062 451.441406 837.195312 451.890625 837.195312 452.441406 C 837.195312 452.859375 837.363281 453.222656 837.695312 453.523438 C 838.027344 453.835938 838.464844 454.109375 839.027344 454.359375 C 839.582031 454.609375 840.195312 454.847656 840.863281 455.066406 C 841.550781 455.296875 842.214844 455.546875 842.863281 455.816406 C 843.496094 456.066406 844.070312 456.390625 844.570312 456.773438 C 845.070312 457.140625 845.457031 457.597656 845.738281 458.148438 C 846.039062 458.679688 846.195312 459.316406 846.195312 460.066406 C 846.195312 460.878906 846.039062 461.609375 845.738281 462.273438 C 845.425781 462.921875 844.996094 463.472656 844.445312 463.941406 C 843.914062 464.390625 843.257812 464.734375 842.488281 464.984375 C 841.738281 465.234375 840.902344 465.359375 839.988281 465.359375 Z M 839.988281 465.359375 "/>
<path style=" stroke:none;fill-rule:nonzero;fill:rgb(21.568628%,21.176471%,26.274511%);fill-opacity:1;" d="M 725.238281 499.714844 C 725.40625 499.632812 725.550781 499.589844 725.699219 499.589844 C 725.832031 499.589844 725.949219 499.652344 726.03125 499.757812 L 727.324219 501.714844 C 727.375 501.796875 727.375 501.914062 727.324219 502.046875 C 727.292969 502.195312 727.207031 502.296875 727.074219 502.382812 C 726.625 502.746094 726.113281 503.070312 725.53125 503.339844 C 724.949219 503.589844 724.332031 503.789062 723.699219 503.921875 C 723.050781 504.089844 722.449219 504.171875 721.863281 504.171875 C 720.863281 504.171875 719.90625 504.027344 718.988281 503.757812 C 718.074219 503.453125 717.238281 503.039062 716.488281 502.507812 C 715.738281 501.953125 715.082031 501.320312 714.53125 500.589844 C 713.96875 499.839844 713.542969 499.027344 713.238281 498.132812 C 712.957031 497.214844 712.824219 496.257812 712.824219 495.257812 C 712.824219 494.257812 712.957031 493.320312 713.238281 492.421875 C 713.542969 491.539062 713.96875 490.714844 714.53125 489.964844 C 715.082031 489.214844 715.738281 488.578125 716.488281 488.046875 C 717.238281 487.496094 718.074219 487.078125 718.988281 486.796875 C 719.90625 486.496094 720.863281 486.339844 721.863281 486.339844 C 722.449219 486.339844 723.042969 486.414062 723.65625 486.546875 C 724.292969 486.695312 724.917969 486.902344 725.53125 487.171875 C 726.136719 487.453125 726.675781 487.789062 727.15625 488.171875 C 727.292969 488.257812 727.363281 488.371094 727.363281 488.507812 C 727.386719 488.621094 727.375 488.714844 727.324219 488.796875 L 726.03125 490.757812 C 725.96875 490.871094 725.875 490.945312 725.738281 490.964844 C 725.59375 490.964844 725.449219 490.914062 725.28125 490.796875 C 724.800781 490.382812 724.261719 490.078125 723.65625 489.882812 C 723.042969 489.664062 722.449219 489.546875 721.863281 489.546875 C 721.050781 489.546875 720.292969 489.703125 719.574219 490.007812 C 718.875 490.289062 718.25 490.695312 717.699219 491.214844 C 717.167969 491.714844 716.75 492.320312 716.449219 493.007812 C 716.167969 493.703125 716.03125 494.453125 716.03125 495.257812 C 716.03125 496.070312 716.167969 496.820312 716.449219 497.507812 C 716.75 498.171875 717.167969 498.777344 717.699219 499.296875 C 718.25 499.828125 718.875 500.246094 719.574219 500.546875 C 720.292969 500.828125 721.050781 500.964844 721.863281 500.964844 C 722.417969 500.964844 723 500.859375 723.613281 500.632812 C 724.21875 500.414062 724.761719 500.109375 725.238281 499.714844 Z M 725.238281 499.714844 "/>
<path style=" stroke:none;fill-rule:nonzero;fill:rgb(21.568628%,21.176471%,26.274511%);fill-opacity:1;" d="M 732.738281 495.257812 C 732.738281 494.257812 732.875 493.320312 733.15625 492.421875 C 733.457031 491.539062 733.875 490.714844 734.40625 489.964844 C 734.957031 489.214844 735.613281 488.578125 736.363281 488.046875 C 737.113281 487.496094 737.929688 487.078125 738.824219 486.796875 C 739.738281 486.496094 740.699219 486.339844 741.699219 486.339844 C 742.699219 486.339844 743.636719 486.496094 744.53125 486.796875 C 745.449219 487.078125 746.261719 487.496094 746.988281 488.046875 C 747.738281 488.578125 748.375 489.214844 748.90625 489.964844 C 749.457031 490.714844 749.886719 491.539062 750.199219 492.421875 C 750.5 493.320312 750.65625 494.257812 750.65625 495.257812 C 750.65625 496.257812 750.5 497.214844 750.199219 498.132812 C 749.886719 499.027344 749.457031 499.839844 748.90625 500.589844 C 748.375 501.320312 747.738281 501.953125 746.988281 502.507812 C 746.261719 503.039062 745.449219 503.453125 744.53125 503.757812 C 743.636719 504.027344 742.699219 504.171875 741.699219 504.171875 C 740.699219 504.171875 739.738281 504.027344 738.824219 503.757812 C 737.929688 503.453125 737.113281 503.039062 736.363281 502.507812 C 735.613281 501.953125 734.957031 501.320312 734.40625 500.589844 C 733.875 499.839844 733.457031 499.027344 733.15625 498.132812 C 732.875 497.214844 732.738281 496.257812 732.738281 495.257812 Z M 735.949219 495.257812 C 735.949219 496.070312 736.082031 496.820312 736.363281 497.507812 C 736.667969 498.203125 737.074219 498.820312 737.574219 499.339844 C 738.09375 499.839844 738.707031 500.246094 739.40625 500.546875 C 740.125 500.828125 740.886719 500.964844 741.699219 500.964844 C 742.5 500.964844 743.25 500.828125 743.949219 500.546875 C 744.636719 500.246094 745.25 499.839844 745.78125 499.339844 C 746.300781 498.820312 746.707031 498.203125 746.988281 497.507812 C 747.292969 496.820312 747.449219 496.070312 747.449219 495.257812 C 747.449219 494.453125 747.292969 493.703125 746.988281 493.007812 C 746.679688 492.320312 746.261719 491.714844 745.738281 491.214844 C 745.238281 490.695312 744.636719 490.289062 743.949219 490.007812 C 743.25 489.703125 742.5 489.546875 741.699219 489.546875 C 740.886719 489.546875 740.125 489.703125 739.40625 490.007812 C 738.707031 490.289062 738.09375 490.695312 737.574219 491.214844 C 737.074219 491.714844 736.667969 492.320312 736.363281 493.007812 C 736.082031 493.703125 735.949219 494.453125 735.949219 495.257812 Z M 735.949219 495.257812 "/>
<path style=" stroke:none;fill-rule:nonzero;fill:rgb(21.568628%,21.176471%,26.274511%);fill-opacity:1;" d="M 775.417969 503.382812 C 775.417969 503.546875 775.375 503.671875 775.292969 503.757812 C 775.210938 503.839844 775.085938 503.882812 774.917969 503.882812 L 772.710938 503.882812 C 772.542969 503.882812 772.417969 503.859375 772.335938 503.796875 C 772.25 503.714844 772.1875 503.589844 772.167969 503.421875 L 771.375 494.964844 L 766.210938 503.671875 C 766.125 503.839844 766.042969 503.945312 765.960938 504.007812 C 765.898438 504.089844 765.804688 504.132812 765.667969 504.132812 C 765.523438 504.132812 765.417969 504.089844 765.335938 504.007812 C 765.273438 503.945312 765.1875 503.839844 765.085938 503.671875 L 759.960938 494.964844 L 759.125 503.421875 C 759.125 503.589844 759.085938 503.714844 759 503.796875 C 758.917969 503.859375 758.792969 503.882812 758.625 503.882812 L 756.417969 503.882812 C 756.25 503.882812 756.105469 503.839844 756 503.757812 C 755.917969 503.671875 755.886719 503.546875 755.917969 503.382812 L 757.585938 486.757812 C 757.605469 486.484375 757.75 486.339844 758 486.339844 L 758.085938 486.339844 C 758.21875 486.339844 758.3125 486.382812 758.375 486.464844 C 758.429688 486.527344 758.5 486.621094 758.585938 486.757812 L 765.667969 498.796875 L 772.75 486.757812 C 772.835938 486.621094 772.898438 486.527344 772.960938 486.464844 C 773.011719 486.382812 773.105469 486.339844 773.25 486.339844 L 773.292969 486.339844 C 773.542969 486.339844 773.6875 486.484375 773.75 486.757812 Z M 775.417969 503.382812 "/>
<path style=" stroke:none;fill-rule:nonzero;fill:rgb(21.568628%,21.176471%,26.274511%);fill-opacity:1;" d="M 800.222656 503.382812 C 800.222656 503.546875 800.183594 503.671875 800.097656 503.757812 C 800.015625 503.839844 799.890625 503.882812 799.722656 503.882812 L 797.515625 503.882812 C 797.347656 503.882812 797.222656 503.859375 797.140625 503.796875 C 797.058594 503.714844 796.996094 503.589844 796.972656 503.421875 L 796.183594 494.964844 L 791.015625 503.671875 C 790.933594 503.839844 790.847656 503.945312 790.765625 504.007812 C 790.703125 504.089844 790.609375 504.132812 790.472656 504.132812 C 790.328125 504.132812 790.222656 504.089844 790.140625 504.007812 C 790.078125 503.945312 789.996094 503.839844 789.890625 503.671875 L 784.765625 494.964844 L 783.933594 503.421875 C 783.933594 503.589844 783.890625 503.714844 783.808594 503.796875 C 783.722656 503.859375 783.597656 503.882812 783.433594 503.882812 L 781.222656 503.882812 C 781.058594 503.882812 780.910156 503.839844 780.808594 503.757812 C 780.722656 503.671875 780.691406 503.546875 780.722656 503.382812 L 782.390625 486.757812 C 782.410156 486.484375 782.558594 486.339844 782.808594 486.339844 L 782.890625 486.339844 C 783.027344 486.339844 783.121094 486.382812 783.183594 486.464844 C 783.234375 486.527344 783.308594 486.621094 783.390625 486.757812 L 790.472656 498.796875 L 797.558594 486.757812 C 797.640625 486.621094 797.703125 486.527344 797.765625 486.464844 C 797.816406 486.382812 797.910156 486.339844 798.058594 486.339844 L 798.097656 486.339844 C 798.347656 486.339844 798.496094 486.484375 798.558594 486.757812 Z M 800.222656 503.382812 "/>
<path style=" stroke:none;fill-rule:nonzero;fill:rgb(21.568628%,21.176471%,26.274511%);fill-opacity:1;" d="M 809.40625 486.964844 L 809.40625 496.796875 C 809.40625 497.414062 809.5 497.984375 809.699219 498.507812 C 809.886719 499.007812 810.167969 499.453125 810.53125 499.839844 C 810.917969 500.203125 811.34375 500.496094 811.824219 500.714844 C 812.324219 500.914062 812.875 501.007812 813.488281 501.007812 C 814.074219 501.007812 814.59375 500.914062 815.074219 500.714844 C 815.574219 500.496094 816 500.203125 816.363281 499.839844 C 816.75 499.453125 817.042969 499.007812 817.238281 498.507812 C 817.425781 497.984375 817.53125 497.414062 817.53125 496.796875 L 817.53125 486.964844 C 817.53125 486.714844 817.667969 486.589844 817.949219 486.589844 L 820.324219 486.589844 C 820.59375 486.589844 820.738281 486.714844 820.738281 486.964844 L 820.738281 496.796875 C 820.738281 497.914062 820.550781 498.914062 820.199219 499.796875 C 819.863281 500.695312 819.363281 501.464844 818.699219 502.132812 C 818.050781 502.777344 817.292969 503.277344 816.40625 503.632812 C 815.511719 503.984375 814.542969 504.171875 813.488281 504.171875 C 812.40625 504.171875 811.417969 503.984375 810.53125 503.632812 C 809.636719 503.277344 808.863281 502.757812 808.199219 502.089844 C 807.550781 501.421875 807.050781 500.652344 806.699219 499.757812 C 806.363281 498.839844 806.199219 497.839844 806.199219 496.757812 L 806.199219 486.964844 C 806.199219 486.714844 806.324219 486.589844 806.574219 486.589844 L 809.03125 486.589844 C 809.28125 486.589844 809.40625 486.714844 809.40625 486.964844 Z M 809.40625 486.964844 "/>
<path style=" stroke:none;fill-rule:nonzero;fill:rgb(21.568628%,21.176471%,26.274511%);fill-opacity:1;" d="M 842.726562 486.589844 C 842.996094 486.589844 843.144531 486.714844 843.144531 486.964844 L 843.144531 503.589844 C 843.144531 503.757812 843.082031 503.882812 842.976562 503.964844 C 842.894531 504.046875 842.789062 504.089844 842.683594 504.089844 C 842.519531 504.089844 842.371094 504.046875 842.269531 503.964844 C 842.183594 503.882812 842.082031 503.796875 841.976562 503.714844 L 830.976562 493.257812 L 830.976562 503.507812 C 830.976562 503.757812 830.851562 503.882812 830.601562 503.882812 L 828.144531 503.882812 C 827.863281 503.882812 827.726562 503.757812 827.726562 503.507812 L 827.726562 486.882812 C 827.726562 486.746094 827.769531 486.632812 827.851562 486.546875 C 827.933594 486.445312 828.039062 486.382812 828.183594 486.382812 L 828.226562 486.382812 C 828.332031 486.382812 828.433594 486.421875 828.519531 486.507812 C 828.621094 486.589844 828.738281 486.695312 828.851562 486.796875 L 839.933594 497.257812 L 839.933594 486.964844 C 839.933594 486.714844 840.058594 486.589844 840.308594 486.589844 Z M 842.726562 486.589844 "/>
<path style=" stroke:none;fill-rule:nonzero;fill:rgb(21.568628%,21.176471%,26.274511%);fill-opacity:1;" d="M 853.605469 486.964844 L 853.605469 503.507812 C 853.605469 503.757812 853.480469 503.882812 853.230469 503.882812 L 850.769531 503.882812 C 850.519531 503.882812 850.394531 503.757812 850.394531 503.507812 L 850.394531 486.964844 C 850.394531 486.714844 850.519531 486.589844 850.769531 486.589844 L 853.230469 486.589844 C 853.480469 486.589844 853.605469 486.714844 853.605469 486.964844 Z M 853.605469 486.964844 "/>
<path style=" stroke:none;fill-rule:nonzero;fill:rgb(21.568628%,21.176471%,26.274511%);fill-opacity:1;" d="M 859.511719 488.921875 L 859.511719 487.089844 C 859.511719 486.757812 859.679688 486.589844 860.011719 486.589844 L 871.84375 486.589844 C 872.011719 486.589844 872.136719 486.652344 872.21875 486.757812 C 872.304688 486.839844 872.34375 486.953125 872.34375 487.089844 L 872.34375 488.921875 C 872.34375 489.257812 872.179688 489.421875 871.84375 489.421875 L 867.511719 489.421875 L 867.511719 503.382812 C 867.511719 503.714844 867.34375 503.882812 867.011719 503.882812 L 864.804688 503.882812 C 864.46875 503.882812 864.304688 503.714844 864.304688 503.382812 L 864.304688 489.421875 L 860.011719 489.421875 C 859.867188 489.421875 859.742188 489.382812 859.636719 489.296875 C 859.554688 489.214844 859.511719 489.089844 859.511719 488.921875 Z M 859.511719 488.921875 "/>
<path style=" stroke:none;fill-rule:nonzero;fill:rgb(21.568628%,21.176471%,26.274511%);fill-opacity:1;" d="M 890.722656 486.589844 C 890.890625 486.589844 890.992188 486.652344 891.054688 486.757812 C 891.140625 486.839844 891.140625 486.984375 891.054688 487.171875 L 885.390625 497.046875 L 885.390625 503.382812 C 885.390625 503.714844 885.222656 503.882812 884.890625 503.882812 L 882.679688 503.882812 C 882.347656 503.882812 882.179688 503.714844 882.179688 503.382812 L 882.179688 497.007812 L 876.515625 487.171875 C 876.429688 486.984375 876.410156 486.839844 876.472656 486.757812 C 876.554688 486.652344 876.691406 486.589844 876.890625 486.589844 L 879.472656 486.589844 C 879.578125 486.589844 879.691406 486.632812 879.804688 486.714844 C 879.910156 486.796875 879.992188 486.902344 880.054688 487.007812 L 883.765625 493.757812 L 887.515625 487.007812 C 887.648438 486.734375 887.859375 486.589844 888.140625 486.589844 Z M 890.722656 486.589844 "/>
<path style=" stroke:none;fill-rule:nonzero;fill:rgb(21.568628%,21.176471%,26.274511%);fill-opacity:1;" d="M 727.40625 533.902344 C 727.65625 533.902344 727.78125 534.027344 727.78125 534.277344 L 727.78125 540.777344 C 727.78125 540.894531 727.75 541.007812 727.699219 541.113281 C 727.636719 541.195312 727.574219 541.277344 727.488281 541.363281 C 727.15625 541.589844 726.761719 541.800781 726.324219 541.988281 C 725.90625 542.183594 725.425781 542.363281 724.90625 542.527344 C 724.40625 542.675781 723.886719 542.777344 723.363281 542.863281 C 722.832031 542.945312 722.332031 542.988281 721.863281 542.988281 C 720.863281 542.988281 719.90625 542.839844 718.988281 542.570312 C 718.074219 542.269531 717.238281 541.851562 716.488281 541.320312 C 715.738281 540.769531 715.082031 540.132812 714.53125 539.402344 C 713.96875 538.652344 713.542969 537.839844 713.238281 536.945312 C 712.957031 536.027344 712.824219 535.070312 712.824219 534.070312 C 712.824219 533.070312 712.957031 532.132812 713.238281 531.238281 C 713.542969 530.320312 713.96875 529.507812 714.53125 528.777344 C 715.082031 528.027344 715.738281 527.394531 716.488281 526.863281 C 717.238281 526.308594 718.050781 525.894531 718.949219 525.613281 C 719.863281 525.308594 720.832031 525.152344 721.863281 525.152344 C 722.449219 525.152344 723.050781 525.226562 723.699219 525.363281 C 724.332031 525.476562 724.949219 525.675781 725.53125 525.945312 C 726.136719 526.195312 726.675781 526.519531 727.15625 526.902344 C 727.261719 527.019531 727.324219 527.144531 727.324219 527.277344 C 727.34375 527.394531 727.332031 527.507812 727.28125 527.613281 L 726.03125 529.527344 C 725.949219 529.644531 725.832031 529.714844 725.699219 529.738281 C 725.550781 529.738281 725.425781 529.683594 725.324219 529.570312 C 724.988281 529.300781 724.613281 529.070312 724.199219 528.902344 C 723.800781 528.714844 723.40625 528.570312 722.988281 528.488281 C 722.59375 528.402344 722.21875 528.363281 721.863281 528.363281 C 721.03125 528.363281 720.261719 528.519531 719.574219 528.820312 C 718.875 529.101562 718.25 529.507812 717.699219 530.027344 C 717.167969 530.527344 716.75 531.132812 716.449219 531.820312 C 716.167969 532.519531 716.03125 533.269531 716.03125 534.070312 C 716.03125 534.882812 716.167969 535.644531 716.449219 536.363281 C 716.75 537.058594 717.15625 537.675781 717.65625 538.195312 C 718.175781 538.726562 718.792969 539.144531 719.488281 539.445312 C 720.207031 539.757812 721 539.902344 721.863281 539.902344 C 722.136719 539.902344 722.457031 539.882812 722.824219 539.820312 C 723.175781 539.738281 723.53125 539.632812 723.863281 539.488281 C 724.199219 539.351562 724.488281 539.195312 724.738281 539.027344 L 724.738281 536.570312 L 721.78125 536.570312 C 721.53125 536.570312 721.40625 536.445312 721.40625 536.195312 L 721.40625 534.277344 C 721.40625 534.027344 721.53125 533.902344 721.78125 533.902344 Z M 727.40625 533.902344 "/>
<path style=" stroke:none;fill-rule:nonzero;fill:rgb(21.568628%,21.176471%,26.274511%);fill-opacity:1;" d="M 745.367188 537.570312 L 747.65625 542.113281 C 747.742188 542.277344 747.75 542.425781 747.699219 542.527344 C 747.636719 542.644531 747.53125 542.695312 747.367188 542.695312 L 744.867188 542.695312 C 744.75 542.695312 744.636719 542.675781 744.53125 542.613281 C 744.417969 542.527344 744.335938 542.425781 744.28125 542.277344 L 742.492188 538.613281 C 742.292969 538.644531 742.09375 538.675781 741.90625 538.695312 C 741.710938 538.695312 741.5 538.695312 741.28125 538.695312 L 737.742188 538.695312 L 737.742188 542.195312 C 737.742188 542.363281 737.679688 542.488281 737.574219 542.570312 C 737.492188 542.652344 737.367188 542.695312 737.199219 542.695312 L 735.03125 542.695312 C 734.886719 542.695312 734.761719 542.652344 734.65625 542.570312 C 734.542969 542.488281 734.492188 542.363281 734.492188 542.195312 L 734.492188 525.902344 C 734.492188 525.769531 734.542969 525.652344 734.65625 525.570312 C 734.761719 525.464844 734.886719 525.402344 735.03125 525.402344 L 735.574219 525.402344 C 735.90625 525.402344 736.242188 525.402344 736.574219 525.402344 C 736.90625 525.402344 737.125 525.402344 737.242188 525.402344 L 741.28125 525.402344 C 742.304688 525.402344 743.242188 525.570312 744.074219 525.902344 C 744.929688 526.238281 745.667969 526.714844 746.28125 527.320312 C 746.917969 527.902344 747.40625 528.613281 747.742188 529.445312 C 748.09375 530.257812 748.28125 531.144531 748.28125 532.113281 C 748.28125 533.277344 748.011719 534.339844 747.492188 535.277344 C 746.960938 536.226562 746.25 536.988281 745.367188 537.570312 Z M 741.074219 536.027344 C 741.84375 536.027344 742.53125 535.863281 743.117188 535.527344 C 743.71875 535.195312 744.199219 534.738281 744.53125 534.152344 C 744.886719 533.550781 745.074219 532.863281 745.074219 532.113281 C 745.074219 531.527344 744.96875 531.019531 744.78125 530.570312 C 744.585938 530.101562 744.304688 529.683594 743.949219 529.320312 C 743.585938 528.964844 743.15625 528.695312 742.65625 528.527344 C 742.179688 528.339844 741.65625 528.238281 741.074219 528.238281 L 737.742188 528.238281 L 737.742188 536.027344 Z M 741.074219 536.027344 "/>
<path style=" stroke:none;fill-rule:nonzero;fill:rgb(21.568628%,21.176471%,26.274511%);fill-opacity:1;" d="M 753.910156 534.070312 C 753.910156 533.070312 754.042969 532.132812 754.324219 531.238281 C 754.628906 530.351562 755.042969 529.527344 755.574219 528.777344 C 756.128906 528.027344 756.785156 527.394531 757.535156 526.863281 C 758.285156 526.308594 759.097656 525.894531 759.992188 525.613281 C 760.910156 525.308594 761.867188 525.152344 762.867188 525.152344 C 763.867188 525.152344 764.804688 525.308594 765.699219 525.613281 C 766.617188 525.894531 767.429688 526.308594 768.160156 526.863281 C 768.910156 527.394531 769.542969 528.027344 770.074219 528.777344 C 770.628906 529.527344 771.054688 530.351562 771.367188 531.238281 C 771.667969 532.132812 771.824219 533.070312 771.824219 534.070312 C 771.824219 535.070312 771.667969 536.027344 771.367188 536.945312 C 771.054688 537.839844 770.628906 538.652344 770.074219 539.402344 C 769.542969 540.132812 768.910156 540.769531 768.160156 541.320312 C 767.429688 541.851562 766.617188 542.269531 765.699219 542.570312 C 764.804688 542.839844 763.867188 542.988281 762.867188 542.988281 C 761.867188 542.988281 760.910156 542.839844 759.992188 542.570312 C 759.097656 542.269531 758.285156 541.851562 757.535156 541.320312 C 756.785156 540.769531 756.128906 540.132812 755.574219 539.402344 C 755.042969 538.652344 754.628906 537.839844 754.324219 536.945312 C 754.042969 536.027344 753.910156 535.070312 753.910156 534.070312 Z M 757.117188 534.070312 C 757.117188 534.882812 757.253906 535.632812 757.535156 536.320312 C 757.835938 537.019531 758.242188 537.632812 758.742188 538.152344 C 759.261719 538.652344 759.878906 539.058594 760.574219 539.363281 C 761.292969 539.644531 762.054688 539.777344 762.867188 539.777344 C 763.667969 539.777344 764.417969 539.644531 765.117188 539.363281 C 765.804688 539.058594 766.417969 538.652344 766.949219 538.152344 C 767.472656 537.632812 767.878906 537.019531 768.160156 536.320312 C 768.460938 535.632812 768.617188 534.882812 768.617188 534.070312 C 768.617188 533.269531 768.460938 532.519531 768.160156 531.820312 C 767.847656 531.132812 767.429688 530.527344 766.910156 530.027344 C 766.410156 529.507812 765.804688 529.101562 765.117188 528.820312 C 764.417969 528.519531 763.667969 528.363281 762.867188 528.363281 C 762.054688 528.363281 761.292969 528.519531 760.574219 528.820312 C 759.878906 529.101562 759.261719 529.507812 758.742188 530.027344 C 758.242188 530.527344 757.835938 531.132812 757.535156 531.820312 C 757.253906 532.519531 757.117188 533.269531 757.117188 534.070312 Z M 757.117188 534.070312 "/>
<path style=" stroke:none;fill-rule:nonzero;fill:rgb(21.568628%,21.176471%,26.274511%);fill-opacity:1;" d="M 800.792969 525.402344 C 800.980469 525.402344 801.105469 525.464844 801.167969 525.570312 C 801.253906 525.683594 801.253906 525.820312 801.167969 525.988281 L 793.753906 542.402344 C 793.585938 542.757812 793.355469 542.945312 793.085938 542.945312 L 793.042969 542.945312 C 792.761719 542.945312 792.542969 542.757812 792.378906 542.402344 L 788.835938 534.820312 L 785.417969 542.402344 C 785.253906 542.757812 785.023438 542.945312 784.753906 542.945312 L 784.710938 542.945312 C 784.398438 542.945312 784.167969 542.757812 784.003906 542.402344 L 776.585938 525.988281 C 776.523438 525.820312 776.523438 525.683594 776.585938 525.570312 C 776.667969 525.464844 776.804688 525.402344 777.003906 525.402344 L 779.417969 525.402344 C 779.554688 525.402344 779.667969 525.445312 779.753906 525.527344 C 779.855469 525.613281 779.941406 525.726562 780.003906 525.863281 L 784.710938 536.777344 L 789.417969 525.863281 C 789.472656 525.726562 789.542969 525.613281 789.628906 525.527344 C 789.730469 525.445312 789.855469 525.402344 790.003906 525.402344 L 792.460938 525.402344 C 792.648438 525.402344 792.773438 525.464844 792.835938 525.570312 C 792.886719 525.683594 792.886719 525.820312 792.835938 525.988281 L 790.542969 531.070312 L 793.042969 537.195312 L 797.753906 525.863281 C 797.804688 525.726562 797.886719 525.613281 798.003906 525.527344 C 798.105469 525.445312 798.222656 525.402344 798.335938 525.402344 Z M 800.792969 525.402344 "/>
<path style=" stroke:none;fill-rule:nonzero;fill:rgb(21.568628%,21.176471%,26.274511%);fill-opacity:1;" d="M 805.605469 527.738281 L 805.605469 525.902344 C 805.605469 525.570312 805.769531 525.402344 806.105469 525.402344 L 817.9375 525.402344 C 818.105469 525.402344 818.230469 525.464844 818.3125 525.570312 C 818.394531 525.652344 818.4375 525.769531 818.4375 525.902344 L 818.4375 527.738281 C 818.4375 528.070312 818.269531 528.238281 817.9375 528.238281 L 813.605469 528.238281 L 813.605469 542.195312 C 813.605469 542.527344 813.4375 542.695312 813.105469 542.695312 L 810.894531 542.695312 C 810.5625 542.695312 810.394531 542.527344 810.394531 542.195312 L 810.394531 528.238281 L 806.105469 528.238281 C 805.957031 528.238281 805.832031 528.195312 805.730469 528.113281 C 805.644531 528.027344 805.605469 527.902344 805.605469 527.738281 Z M 805.605469 527.738281 "/>
<path style=" stroke:none;fill-rule:nonzero;fill:rgb(21.568628%,21.176471%,26.274511%);fill-opacity:1;" d="M 838.980469 525.402344 C 839.230469 525.402344 839.355469 525.527344 839.355469 525.777344 L 839.355469 542.320312 C 839.355469 542.570312 839.230469 542.695312 838.980469 542.695312 L 836.523438 542.695312 C 836.273438 542.695312 836.148438 542.570312 836.148438 542.320312 L 836.148438 537.195312 L 827.566406 537.195312 L 827.566406 542.320312 C 827.566406 542.570312 827.441406 542.695312 827.191406 542.695312 L 824.730469 542.695312 C 824.449219 542.695312 824.316406 542.570312 824.316406 542.320312 L 824.316406 525.777344 C 824.316406 525.527344 824.449219 525.402344 824.730469 525.402344 L 827.191406 525.402344 C 827.441406 525.402344 827.566406 525.527344 827.566406 525.777344 L 827.566406 534.363281 L 836.148438 534.363281 L 836.148438 525.777344 C 836.148438 525.527344 836.273438 525.402344 836.523438 525.402344 Z M 838.980469 525.402344 "/>
</g>
</svg>
